<?xml version="1.0" encoding="utf-8"?>
<!-- Generator: Adobe Illustrator 27.5.0, SVG Export Plug-In . SVG Version: 6.00 Build 0)  -->
<svg version="1.1" xmlns="http://www.w3.org/2000/svg" xmlns:xlink="http://www.w3.org/1999/xlink" x="0px" y="0px"
	 viewBox="0 0 750 500" style="enable-background:new 0 0 750 500;" xml:space="preserve">
<g id="BACKGROUND">
	<g>
		<radialGradient id="SVGID_1_" cx="365.9796" cy="280.49" r="515.3315" gradientUnits="userSpaceOnUse">
			<stop  offset="0" style="stop-color:#84D8FF"/>
			<stop  offset="0.0092" style="stop-color:#85D8FF"/>
			<stop  offset="0.3184" style="stop-color:#B0E5FF"/>
			<stop  offset="0.5973" style="stop-color:#CFEEFF"/>
			<stop  offset="0.834" style="stop-color:#E1F3FF"/>
			<stop  offset="1" style="stop-color:#E8F5FF"/>
		</radialGradient>
		<rect style="fill:url(#SVGID_1_);" width="750" height="500"/>
		<g style="opacity:0.21;">
			<g>
				<g>
					<path style="fill:#6898FF;" d="M470.006,148.018c64.285,104.351-141.247,26.53-161.284,147.444
						c-30.67,185.08-152.318,189.703-216.603,85.352S60.314,139.758,164.664,75.473S405.721,43.668,470.006,148.018z"/>
				</g>
				
					<ellipse transform="matrix(0.8514 -0.5245 0.5245 0.8514 -101.0368 261.761)" style="fill:#6898FF;" cx="411.464" cy="309.201" rx="68.041" ry="50.633"/>
			</g>
			<path style="fill:#6898FF;" d="M542.702,168.504c75.649,154.539-102.672,196.661-74.082,248.994
				c28.589,52.333,190.101,57.841,230.59-63.372c10.169-30.442,68.226-188.13-51.48-294.694
				C581.925,0.851,502.151,85.666,542.702,168.504z"/>
		</g>
	</g>
</g>
<g id="OBJECTS">
	<g>
		<g>
			<g>
				
					<linearGradient id="SVGID_00000145757009942974018890000002267328822618697380_" gradientUnits="userSpaceOnUse" x1="88.9048" y1="156.8337" x2="225.7644" y2="171.28" gradientTransform="matrix(-0.7625 0.647 0.647 0.7625 669.4146 -97.4672)">
					<stop  offset="0" style="stop-color:#6898FF"/>
					<stop  offset="1" style="stop-color:#84D8FF"/>
				</linearGradient>
				<path style="fill:url(#SVGID_00000145757009942974018890000002267328822618697380_);" d="M571.409,244.174
					c-2.356-26.205-1.845-61.12,10.13-94.253l4.919,2.753l-4.275-4.496c0.755-2.017,1.55-4.027,2.393-6.027l7.065,3.408
					l-6.154-5.506c2.235-5.087,4.77-10.103,7.634-15.012l11.962,8.652l-10.151-11.673c4.229-6.851,9.117-13.475,14.778-19.753
					c0,0,6.303,7.94,12.668,21.384l-3.284,5.569l4.548-2.827c1.661,3.707,3.294,7.783,4.795,12.181l-9.688,6.703l10.376-4.631
					c2.297,7.094,4.215,14.969,5.309,23.471l-11.568,10.5l12.226-4.039c1.768,23.631-3.191,51.42-23.35,80.075
					C578.853,265.191,576.388,253.603,571.409,244.174z"/>
				<g style="opacity:0.4;">
					<path style="fill:#E8F5FF;" d="M608.626,115.16c2.23,10.217,3.316,20.665,3.819,31.114c0.103,2.614,0.206,5.231,0.255,7.849
						l-0.005,7.856c-0.008,2.62-0.192,5.235-0.279,7.853c-0.077,2.619-0.287,5.232-0.482,7.845
						c-0.374,5.229-1.069,10.428-1.716,15.629c-0.404,2.59-0.881,5.17-1.318,7.753l-0.675,3.871l-0.878,3.834
						c-0.598,2.552-1.141,5.114-1.783,7.652l-2.198,7.544c-0.386,1.25-0.748,2.506-1.153,3.749l-1.342,3.691
						c-0.909,2.454-1.824,4.9-2.79,7.322c0.524-2.567,1.098-5.109,1.678-7.644l0.892-3.792c0.263-1.272,0.484-2.555,0.727-3.83
						l1.512-7.628l1.254-7.669l0.628-3.829l0.513-3.848c0.334-2.565,0.708-5.124,1.01-7.691c0.518-5.147,1.174-10.276,1.475-15.442
						c0.514-5.147,0.698-10.32,0.981-15.487l0.297-7.76c0.024-2.588,0.08-5.178,0.149-7.77
						C609.312,135.965,609.14,125.589,608.626,115.16z"/>
				</g>
			</g>
			<g>
				
					<linearGradient id="SVGID_00000052070051405755533990000017124673645865802431_" gradientUnits="userSpaceOnUse" x1="702.2829" y1="259.2339" x2="718.3916" y2="133.9442" gradientTransform="matrix(-0.9923 0.1236 0.1236 0.9923 788.4724 -76.2087)">
					<stop  offset="0" style="stop-color:#6898FF"/>
					<stop  offset="1" style="stop-color:#84D8FF"/>
				</linearGradient>
				<path style="fill:url(#SVGID_00000052070051405755533990000017124673645865802431_);" d="M177.398,255.258
					c-0.309-22.16-26.941-14.083-26.603-24.936s25.613-33.196,14.443-48.418c-11.17-15.222-25.847-6.875-37.099-14.504
					c-11.252-7.629,5.603-32.682-5.354-41.071s-32.464,9.291-40.892,1.046s-21.773-19.359-34.613-11.802
					c-12.84,7.557,14.237,33.392,11.346,48.523c-2.891,15.131-26.594,31.262,8.337,44.183c34.931,12.921-13.338,34.394-9.906,52.716
					c3.431,18.322,33.801,14.881,33.769,24.376c-0.031,9.495-19.253,21.544-14.334,31.7c2.714,5.604,51.826,56.995,78.607,41.166
					C176.853,345.378,177.558,266.734,177.398,255.258z"/>
				<g style="opacity:0.4;">
					<path style="fill:#E8F5FF;" d="M56.01,124.314c3.805,3.586,7.311,7.486,10.687,11.483c3.371,4.004,6.655,8.089,9.786,12.29
						c6.262,8.404,12.037,17.169,17.425,26.163c5.424,8.976,10.353,18.243,15.031,27.629c4.621,9.417,8.813,19.035,12.788,28.737
						l2.86,7.325c0.94,2.447,1.808,4.92,2.715,7.379c0.907,2.459,1.799,4.923,2.621,7.412l2.514,7.448
						c3.109,10.007,6.178,20.031,8.641,30.213c2.629,10.137,4.763,20.393,6.728,30.667c0.955,5.143,1.722,10.32,2.591,15.473
						c0.787,5.168,1.447,10.355,2.112,15.535l-1.628-7.666c-0.531-2.556-1.011-5.12-1.572-7.668
						c-1.175-5.086-2.248-10.19-3.506-15.25l-1.844-7.598l-0.926-3.796l-1.007-3.776l-1.983-7.556
						c-0.656-2.519-1.411-5.012-2.112-7.519c-5.675-20.034-12.302-39.78-20.076-59.066c-7.721-19.304-16.607-38.142-26.755-56.294
						c-2.515-4.551-5.183-9.015-7.873-13.467c-1.329-2.236-2.749-4.415-4.12-6.627c-1.424-2.176-2.827-4.369-4.286-6.523
						C69.068,140.588,62.889,132.176,56.01,124.314z"/>
				</g>
				<g style="opacity:0.4;">
					<path style="fill:#E8F5FF;" d="M108.223,138.826c-0.549,3.765-1.296,7.474-2.045,11.183l-1.197,5.542l-1.29,5.516
						c-0.873,3.673-1.807,7.329-2.782,10.974c-0.967,3.647-1.988,7.278-3.04,10.901l-0.348,1.197l-1.194,0.259
						c-3.105,0.674-6.217,1.313-9.336,1.925c-3.117,0.618-6.247,1.179-9.383,1.714c-3.129,0.566-6.281,1.028-9.431,1.496
						c-3.157,0.441-6.317,0.864-9.509,1.148c3.01-1.1,6.05-2.061,9.095-3.005c3.051-0.916,6.1-1.838,9.172-2.657
						c3.066-0.849,6.137-1.672,9.221-2.439c3.083-0.772,6.171-1.518,9.268-2.228l-1.541,1.456c1.006-3.635,2.043-7.263,3.133-10.874
						c1.082-3.614,2.206-7.216,3.391-10.801l1.797-5.372l1.89-5.345C105.404,145.868,106.715,142.319,108.223,138.826z"/>
				</g>
				<g style="opacity:0.4;">
					<path style="fill:#E8F5FF;" d="M148.646,192.609c-2.172,3.368-4.451,6.65-6.746,9.919c-1.134,1.645-2.325,3.245-3.485,4.869
						c-1.16,1.625-2.339,3.234-3.536,4.829l-3.569,4.802l-3.637,4.747c-2.406,3.18-4.889,6.298-7.361,9.425l-0.215,0.271
						l-0.332,0.205c-4.028,2.489-8.13,4.854-12.206,7.262c-4.084,2.395-8.214,4.713-12.342,7.034l-6.23,3.419l-6.278,3.338
						c-4.211,2.182-8.425,4.359-12.745,6.361c3.805-2.861,7.715-5.546,11.628-8.227l5.908-3.956l5.957-3.874
						c3.996-2.542,7.99-5.086,12.031-7.554c4.049-2.454,8.071-4.951,12.168-7.325l-0.547,0.477c2.517-3.091,5.023-6.191,7.607-9.228
						l3.846-4.579l3.915-4.524c1.298-1.514,2.613-3.014,3.948-4.498c1.335-1.484,2.638-2.994,3.999-4.457
						C143.119,198.395,145.829,195.458,148.646,192.609z"/>
				</g>
				<g style="opacity:0.4;">
					<path style="fill:#E8F5FF;" d="M167.426,250.392c-3.879,8.379-8.1,16.557-12.425,24.671c-2.128,4.077-4.38,8.081-6.554,12.126
						l-3.325,6.021l-1.622,3.001l-0.38,0.734c-0.056,0.113-0.135,0.258-0.172,0.345l-0.069,0.147l-0.035,0.073l-0.018,0.037
						c0.029-0.063,0.071-0.175,0.093-0.273c0.049-0.204,0.054-0.435,0.014-0.642c-0.01-0.052-0.022-0.102-0.037-0.151
						c-0.147-0.271,0.209-0.093-0.132,1.262c-0.579,0.978-0.35,0.49-0.586,0.789c-0.163,0.134-0.248,0.182-0.261,0.19
						c-0.377,0.218-0.407,0.203-0.542,0.265c-0.208,0.081-0.359,0.132-0.518,0.185l-0.884,0.276
						c-4.537,1.239-8.974,2.29-13.469,3.344c-4.497,0.984-8.977,2.027-13.495,2.909c-9.016,1.844-18.069,3.516-27.219,4.764
						c8.753-2.941,17.594-5.496,26.46-7.933c4.423-1.259,8.88-2.373,13.311-3.58c4.427-1.16,8.93-2.263,13.244-3.511l0.764-0.226
						l0.296-0.099c-0.002,0.008,0.103-0.058-0.151,0.086c0,0-0.067,0.038-0.217,0.159c-0.225,0.286,0.025-0.209-0.55,0.751
						c-0.335,1.338,0.027,1.499-0.114,1.211l-0.02-0.202c-0.018-0.275,0.009-0.574,0.08-0.847c0.033-0.131,0.085-0.278,0.126-0.375
						l0.029-0.061l0.058-0.121l0.117-0.242l0.218-0.423l0.424-0.79l1.7-3.042c1.147-2.004,2.274-4.011,3.458-5.985
						c2.376-3.943,4.705-7.909,7.168-11.797C157.049,265.629,162.053,257.902,167.426,250.392z"/>
				</g>
			</g>
			<g>
				
					<linearGradient id="SVGID_00000070080792528951046140000013204872426799810472_" gradientUnits="userSpaceOnUse" x1="490.4969" y1="292.4833" x2="503.0822" y2="194.5975" gradientTransform="matrix(-0.8145 -0.5802 -0.5802 0.8145 1202.0328 294.6657)">
					<stop  offset="0" style="stop-color:#6898FF"/>
					<stop  offset="1" style="stop-color:#84D8FF"/>
				</linearGradient>
				<path style="fill:url(#SVGID_00000070080792528951046140000013204872426799810472_);" d="M670.711,270.467
					c11.31-12.938-8.226-22.67-2.405-28.743c5.821-6.072,31.971-5.295,33.425-20.102c1.454-14.807-11.332-17.925-13.862-28.4
					c-2.53-10.475,20.172-15.809,18.206-26.562c-1.966-10.754-23.526-12.183-24.109-21.488c-0.583-9.305-2.512-22.919-13.829-25.5
					c-11.317-2.581-9.106,26.935-18.616,34.094c-9.51,7.159-31.534,3.65-18.101,29.967c13.433,26.317-25.517,12.617-33.038,25.03
					c-7.521,12.413,11.766,26.836,6.825,32.291c-4.941,5.455-22.265,2.015-24.695,10.526c-1.341,4.696,0.321,60.845,23.962,66.189
					C623.677,322.111,664.854,277.168,670.711,270.467z"/>
				<g style="opacity:0.4;">
					<path style="fill:#E8F5FF;" d="M668.636,129.426c0.325,4.081,0.324,8.187,0.202,12.282c-0.011,2.053-0.184,4.094-0.281,6.143
						l-0.171,3.073l-0.275,3.063l-0.607,6.126l-0.839,6.097c-0.49,4.08-1.312,8.102-2.041,12.143
						c-0.667,4.056-1.662,8.04-2.58,12.042c-0.483,1.995-0.886,4.012-1.434,5.99l-1.638,5.937l-1.663,5.932
						c-0.537,1.983-1.255,3.909-1.874,5.866c-1.306,3.892-2.521,7.818-3.904,11.683c-2.984,7.649-5.766,15.381-9.23,22.828
						l-2.507,5.621c-0.839,1.872-1.642,3.76-2.599,5.577l-5.558,10.978c-0.945,1.819-1.83,3.669-2.825,5.461l-3.056,5.337
						l-6.154,10.64c-1.002,1.786-2.174,3.472-3.285,5.193l-3.363,5.141c-2.229,3.434-4.491,6.844-6.774,10.235
						c3.922-7.194,8.168-14.174,12.034-21.366l5.658-10.858l2.85-5.412c0.933-1.812,1.756-3.681,2.639-5.518l5.243-11.046
						c0.916-1.821,1.678-3.712,2.476-5.586l2.383-5.626c3.354-7.429,6.087-15.104,8.998-22.708
						c1.394-3.823,2.622-7.706,3.941-11.557c0.625-1.936,1.351-3.842,1.894-5.804l1.71-5.86l1.735-5.855
						c0.581-1.951,1.016-3.94,1.532-5.909c0.965-3.953,2.074-7.877,2.865-11.871c0.859-3.98,1.759-7.955,2.425-11.973l1.093-6.014
						l0.874-6.049C667.71,145.74,668.504,137.607,668.636,129.426z"/>
				</g>
				<g style="opacity:0.4;">
					<path style="fill:#E8F5FF;" d="M691.205,165.996c-2.27,1.865-4.625,3.593-6.979,5.323l-3.563,2.543l-3.604,2.477
						c-2.415,1.631-4.845,3.239-7.293,4.816c-2.468,1.546-4.901,3.149-7.404,4.639l-0.86,0.512l-0.813-0.496
						c-2.131-1.302-4.279-2.574-6.377-3.929c-2.115-1.328-4.219-2.675-6.296-4.067c-2.094-1.364-4.146-2.797-6.199-4.229
						c-2.041-1.452-4.077-2.913-6.054-4.473c2.315,0.992,4.571,2.083,6.821,3.184c2.238,1.121,4.477,2.24,6.675,3.428
						c2.214,1.16,4.402,2.366,6.579,3.59c2.193,1.197,4.337,2.477,6.497,3.727l-1.673,0.016c2.446-1.582,4.962-3.051,7.443-4.576
						c2.5-1.494,5.019-2.958,7.553-4.398l3.819-2.13l3.86-2.065C685.932,168.546,688.526,167.202,691.205,165.996z"/>
				</g>
				<g style="opacity:0.4;">
					<path style="fill:#E8F5FF;" d="M686.619,218.829c-3.003,0.761-6.021,1.422-9.042,2.062c-3.024,0.622-6.047,1.247-9.081,1.792
						l-4.549,0.837l-4.559,0.771c-3.037,0.532-6.084,0.991-9.13,1.456l-0.273,0.042l-0.304-0.062
						c-3.613-0.742-7.202-1.591-10.799-2.406c-3.595-0.822-7.174-1.721-10.754-2.61c-3.574-0.917-7.143-1.858-10.699-2.859
						c-3.553-1.015-7.104-2.035-10.621-3.213c3.686,0.409,7.338,0.976,10.988,1.547c3.647,0.586,7.281,1.232,10.91,1.901
						c3.623,0.698,7.247,1.386,10.855,2.15c3.606,0.771,7.22,1.51,10.81,2.354l-0.576-0.021c3.052-0.424,6.104-0.852,9.166-1.209
						l4.589-0.561l4.599-0.495c3.064-0.344,6.14-0.606,9.215-0.873C680.443,219.183,683.524,218.956,686.619,218.829z"/>
				</g>
				<g style="opacity:0.4;">
					<path style="fill:#E8F5FF;" d="M667.486,262.275c-6.647,2.745-13.383,5.192-20.146,7.549
						c-3.372,1.208-6.776,2.308-10.157,3.475l-5.081,1.69l-2.503,0.864l-0.569,0.215l-0.115,0.047l-0.058,0.023
						c0.041-0.012,0.263-0.132,0.366-0.249c0.063-0.062,0.119-0.131,0.166-0.204l0.063-0.11c-0.028,0.043,0.141-0.252-0.057,0.068
						c-0.17,0.263-0.543,0.567-0.947,0.664c-0.381,0.114-0.823,0.014-0.727,0.029l-0.163-0.038
						c-0.274-0.078-0.253-0.087-0.367-0.127c-0.551-0.236-0.913-0.43-1.339-0.644c-6.372-3.454-12.495-7.094-18.597-10.877
						c-6.092-3.775-12.113-7.667-17.962-11.853c6.532,3.009,12.907,6.285,19.232,9.642c3.179,1.65,6.299,3.401,9.454,5.086
						c3.13,1.713,6.263,3.484,9.383,5.107c0.369,0.195,0.8,0.42,1.07,0.54c-0.01-0.001,0.112,0.04-0.053-0.011l-0.082-0.015
						c0.109,0.022-0.319-0.084-0.686,0.029c-0.39,0.095-0.749,0.397-0.905,0.658c-0.183,0.32-0.003,0.013-0.019,0.05l0.1-0.131
						c0.071-0.086,0.151-0.169,0.238-0.245c0.152-0.143,0.422-0.294,0.513-0.33l0.098-0.039l0.196-0.078l0.69-0.25l2.585-0.851
						c1.716-0.543,3.421-1.096,5.142-1.6c3.443-1.001,6.872-2.038,10.336-2.96C653.496,265.5,660.443,263.728,667.486,262.275z"/>
				</g>
			</g>
			<g>
				
					<linearGradient id="SVGID_00000045594033593883739170000012877411636300877444_" gradientUnits="userSpaceOnUse" x1="421.0589" y1="398.0284" x2="458.9425" y2="226.4995" gradientTransform="matrix(-0.8859 -0.4639 -0.4639 0.8859 859.5242 178.8028)">
					<stop  offset="0" style="stop-color:#6898FF"/>
					<stop  offset="1" style="stop-color:#84D8FF"/>
				</linearGradient>
				<path style="fill:url(#SVGID_00000045594033593883739170000012877411636300877444_);" d="M315.255,154.448l5.549,3.633
					l-4.655-5.624c1.045-2.302,2.136-4.593,3.284-6.868l8.012,4.579l-6.778-6.964c3.023-5.779,6.393-11.45,10.14-16.969
					l13.338,11.131l-10.975-14.524c5.501-7.682,11.756-15.044,18.89-21.936c0,0,6.76,9.829,13.156,26.115l-4.291,6.257l5.556-2.938
					c1.653,4.483,3.245,9.396,4.656,14.676l-11.888,7.058l12.531-4.571c2.13,8.507,3.754,17.897,4.363,27.954l-14.394,11.354
					l14.653-3.725c0.282,39.319-15.769,87.248-75.496,130.954C300.906,314.041,282.682,228.437,315.255,154.448z"/>
				<g style="opacity:0.4;">
					<path style="fill:#E8F5FF;" d="M352.469,114.563c0.021,4.015-0.11,8.031-0.298,12.042c-0.179,4.013-0.461,8.018-0.75,12.024
						c-0.293,4.006-0.713,7.999-1.064,12.003c-0.419,3.994-0.893,7.983-1.359,11.974c-0.515,3.983-1.033,7.968-1.6,11.945
						l-1.85,11.911c-1.369,7.918-2.785,15.83-4.418,23.699c-1.58,7.88-3.476,15.693-5.289,23.521l-3.061,11.66
						c-0.522,1.94-0.994,3.892-1.556,5.822l-1.712,5.78c-4.39,15.458-9.764,30.627-15.674,45.544
						c4.266-15.484,8.746-30.845,12.529-46.398c2.013-7.741,3.764-15.548,5.627-23.322c1.687-7.816,3.543-15.594,5.048-23.448
						c1.704-7.812,3.125-15.682,4.621-23.536l2.13-11.806c0.637-3.947,1.308-7.89,1.991-11.832l1.87-11.856
						c0.576-3.959,1.203-7.914,1.739-11.881C350.549,130.482,351.575,122.539,352.469,114.563z"/>
				</g>
			</g>
			<g>
				
					<linearGradient id="SVGID_00000023991105303648999260000011683722295612963206_" gradientUnits="userSpaceOnUse" x1="462.0966" y1="282.0447" x2="335.6448" y2="146.4882" gradientTransform="matrix(-1 4.523370e-04 4.523370e-04 1 818.679 -4.0712)">
					<stop  offset="0" style="stop-color:#6898FF"/>
					<stop  offset="1" style="stop-color:#84D8FF"/>
				</linearGradient>
				<path style="fill:url(#SVGID_00000023991105303648999260000011683722295612963206_);" d="M456.569,73.541
					c-31.622,25.096-115.524,101.422-127.301,212.734c-13.36,62.722,39.267,90.523,79.535,39.079c0,0,33.447-47.393,29.482-149.16
					c-1.644-42.196,13.327-79.724,22.988-98.66C462.823,74.495,459.22,71.437,456.569,73.541z"/>
				<g style="opacity:0.4;">
					<path style="fill:#E8F5FF;" d="M453.573,83.819l0.265-0.402c0.041-0.069,0.083-0.137,0.117-0.208
						c0.02-0.034,0.019-0.081,0.032-0.051c-0.011,0.004-0.055,0.039-0.08,0.06c-0.233,0.214-0.443,0.459-0.654,0.7
						c-0.419,0.485-0.823,0.985-1.222,1.488c-0.798,1.006-1.572,2.031-2.335,3.064c-1.534,2.059-3.026,4.149-4.482,6.263
						c-2.913,4.227-5.733,8.515-8.432,12.878c-5.44,8.698-10.493,17.626-15.257,26.698c-4.72,9.095-9.201,18.312-13.273,27.709
						c-4.106,9.38-7.907,18.894-11.316,28.548c-3.473,9.631-6.561,19.399-9.309,29.262c-2.802,9.85-5.145,19.826-7.244,29.856
						c-4.122,20.079-6.79,40.463-8.208,60.995c-0.138-20.586,1.73-41.218,5.343-61.543c1.772-10.172,4.071-20.25,6.695-30.24
						c2.669-9.98,5.758-19.847,9.205-29.586c3.509-9.717,7.355-19.314,11.61-28.727c4.293-9.394,8.882-18.656,13.942-27.656
						c5.02-9.021,10.456-17.807,16.286-26.317c2.939-4.239,5.953-8.425,9.128-12.487c1.589-2.03,3.205-4.038,4.873-6.003
						c0.839-0.978,1.689-1.947,2.561-2.896c0.437-0.474,0.876-0.945,1.333-1.401c0.229-0.227,0.456-0.456,0.713-0.659
						c0.041-0.023,0.055-0.051,0.123-0.066c0.099,0.03,0.019,0.116,0.017,0.136c-0.041,0.072-0.088,0.138-0.134,0.204
						L453.573,83.819z"/>
				</g>
				<g style="opacity:0.4;">
					<path style="fill:#E8F5FF;" d="M367.879,184.011c1.866,2.523,3.658,5.089,5.412,7.678c1.763,2.583,3.474,5.197,5.173,7.817
						c1.675,2.634,3.38,5.252,4.998,7.919c1.64,2.655,3.286,5.306,4.863,7.998l-2.385-0.708l5.562-2.85l5.606-2.763
						c3.724-1.868,7.513-3.607,11.276-5.397c3.794-1.728,7.587-3.458,11.426-5.099c3.838-1.642,7.688-3.257,11.621-4.71
						c-3.513,2.288-7.108,4.413-10.716,6.512c-3.608,2.1-7.26,4.11-10.911,6.123c-3.683,1.951-7.34,3.952-11.061,5.824l-5.563,2.848
						l-5.607,2.761l-1.534,0.755l-0.852-1.463c-1.569-2.696-3.069-5.433-4.575-8.166c-1.527-2.721-2.969-5.491-4.44-8.245
						c-1.447-2.768-2.882-5.542-4.265-8.347C370.513,189.698,369.159,186.876,367.879,184.011z"/>
				</g>
				<g style="opacity:0.4;">
					<path style="fill:#E8F5FF;" d="M399.345,143.062c0.824,1.462,1.585,2.949,2.347,4.435c0.73,1.498,1.495,2.984,2.187,4.497
						c0.703,1.509,1.428,3.009,2.089,4.534c0.667,1.522,1.368,3.032,2.008,4.565l-2.954-0.103c0.989-2.29,1.93-4.602,2.963-6.872
						c1.015-2.278,2.057-4.543,3.128-6.795l0.219-0.461l0.4-0.276c2.125-1.47,4.264-2.92,6.435-4.326
						c2.158-1.423,4.328-2.83,6.534-4.184c2.185-1.385,4.422-2.695,6.658-4.007c2.252-1.289,4.51-2.568,6.846-3.738
						c-1.899,1.793-3.875,3.476-5.858,5.15c-1.999,1.651-3.996,3.303-6.046,4.881c-2.028,1.608-4.093,3.164-6.17,4.704
						c-2.064,1.557-4.159,3.07-6.269,4.562l0.618-0.737c-1.035,2.268-2.099,4.524-3.19,6.766c-1.073,2.251-2.238,4.459-3.355,6.689
						l-1.719,3.43l-1.236-3.534c-0.548-1.568-1.036-3.159-1.557-4.738c-0.527-1.576-0.992-3.176-1.477-4.769
						c-0.497-1.588-0.921-3.204-1.379-4.806C400.137,146.315,399.71,144.7,399.345,143.062z"/>
				</g>
			</g>
		</g>
	</g>
	<g>
		<g>
			<circle style="fill:#FFFFFF;" cx="176.904" cy="129.426" r="23.328"/>
		</g>
		<g>
			<g>
				
					<linearGradient id="SVGID_00000066474899019254307170000017364590330104594067_" gradientUnits="userSpaceOnUse" x1="147.2518" y1="167.8942" x2="170.2293" y2="101.6128" gradientTransform="matrix(0.9696 0.2446 -0.2446 0.9696 57.1853 -41.9552)">
					<stop  offset="0" style="stop-color:#6898FF"/>
					<stop  offset="1" style="stop-color:#A061FF"/>
				</linearGradient>
				<circle style="fill:url(#SVGID_00000066474899019254307170000017364590330104594067_);" cx="176.904" cy="129.426" r="13.328"/>
			</g>
			
				<linearGradient id="SVGID_00000068647079722773434420000005777363985013666201_" gradientUnits="userSpaceOnUse" x1="147.2518" y1="167.8942" x2="170.2293" y2="101.6128" gradientTransform="matrix(0.9696 0.2446 -0.2446 0.9696 57.1853 -41.9552)">
				<stop  offset="0" style="stop-color:#6898FF"/>
				<stop  offset="1" style="stop-color:#A061FF"/>
			</linearGradient>
			<path style="fill:url(#SVGID_00000068647079722773434420000005777363985013666201_);" d="M215.471,132.013l-6.562-2.699
				c-0.009-3.076-0.468-6.09-1.322-8.966l5.517-4.475c0.903-0.732,1.131-2.017,0.535-3.015l-4.726-7.914
				c-0.596-0.998-1.835-1.407-2.908-0.959l-6.556,2.735c-2.127-2.116-4.563-3.95-7.267-5.416l0.736-7.057
				c0.121-1.156-0.627-2.226-1.754-2.51l-8.938-2.254c-1.127-0.284-2.292,0.303-2.735,1.378l-2.699,6.562
				c-3.076,0.009-6.09,0.468-8.966,1.322l-4.475-5.517c-0.732-0.903-2.017-1.131-3.015-0.535l-7.915,4.726
				c-0.998,0.596-1.407,1.835-0.959,2.908l2.735,6.556c-2.116,2.127-3.95,4.563-5.416,7.267l-7.057-0.736
				c-1.156-0.121-2.226,0.627-2.51,1.754l-2.254,8.938c-0.284,1.127,0.303,2.292,1.378,2.735l6.562,2.699
				c0.009,3.076,0.468,6.09,1.322,8.966l-5.517,4.475c-0.903,0.732-1.131,2.017-0.535,3.015l4.726,7.915
				c0.596,0.998,1.835,1.407,2.908,0.959l6.556-2.735c2.127,2.116,4.563,3.95,7.267,5.416l-0.736,7.057
				c-0.121,1.156,0.627,2.226,1.754,2.51l8.938,2.254c1.127,0.284,2.292-0.303,2.735-1.378l2.699-6.562
				c3.076-0.009,6.09-0.468,8.966-1.322l4.475,5.517c0.732,0.903,2.017,1.131,3.015,0.535l7.915-4.726
				c0.998-0.596,1.407-1.835,0.959-2.908l-2.735-6.556c2.116-2.127,3.95-4.563,5.416-7.267l7.057,0.736
				c1.156,0.121,2.226-0.627,2.51-1.754l2.254-8.938C217.133,133.62,216.546,132.455,215.471,132.013z M156.186,124.201
				c2.886-11.442,14.501-18.379,25.944-15.493c11.442,2.886,18.379,14.501,15.493,25.944c-2.886,11.442-14.501,18.379-25.944,15.493
				C160.236,147.258,153.3,135.643,156.186,124.201z"/>
		</g>
	</g>
	<g>
		<g>
			<circle style="fill:#FFFFFF;" cx="245.232" cy="190.681" r="16.931"/>
		</g>
		<g>
			<g>
				
					<linearGradient id="SVGID_00000107546658439991014370000000067170448826357685_" gradientUnits="userSpaceOnUse" x1="239.3387" y1="202.3475" x2="239.0442" y2="140.4848" gradientTransform="matrix(0.9696 0.2446 -0.2446 0.9696 57.1853 -41.9552)">
					<stop  offset="0" style="stop-color:#6898FF"/>
					<stop  offset="1" style="stop-color:#A061FF"/>
				</linearGradient>
				<circle style="fill:url(#SVGID_00000107546658439991014370000000067170448826357685_);" cx="245.232" cy="190.681" r="9.673"/>
			</g>
			
				<linearGradient id="SVGID_00000154401932204716470860000016348098310861293996_" gradientUnits="userSpaceOnUse" x1="239.3387" y1="202.3475" x2="239.0441" y2="140.4848" gradientTransform="matrix(0.9696 0.2446 -0.2446 0.9696 57.1853 -41.9552)">
				<stop  offset="0" style="stop-color:#6898FF"/>
				<stop  offset="1" style="stop-color:#A061FF"/>
			</linearGradient>
			<path style="fill:url(#SVGID_00000154401932204716470860000016348098310861293996_);" d="M273.223,192.559l-4.763-1.959
				c-0.006-2.233-0.34-4.42-0.96-6.507l4.004-3.248c0.655-0.532,0.821-1.464,0.388-2.188l-3.43-5.744
				c-0.433-0.725-1.332-1.021-2.111-0.696l-4.758,1.985c-1.544-1.535-3.311-2.867-5.274-3.931l0.534-5.122
				c0.088-0.839-0.455-1.615-1.273-1.822l-6.487-1.636c-0.818-0.206-1.664,0.22-1.985,1l-1.959,4.763
				c-2.233,0.006-4.42,0.34-6.507,0.96l-3.248-4.004c-0.532-0.655-1.464-0.821-2.188-0.388l-5.744,3.43
				c-0.724,0.433-1.021,1.332-0.696,2.111l1.985,4.758c-1.535,1.544-2.867,3.311-3.931,5.274l-5.122-0.534
				c-0.839-0.088-1.615,0.455-1.822,1.273l-1.636,6.487c-0.206,0.818,0.22,1.664,1,1.985l4.763,1.959
				c0.006,2.233,0.34,4.42,0.96,6.507l-4.004,3.248c-0.655,0.532-0.821,1.464-0.388,2.188l3.43,5.744
				c0.433,0.724,1.332,1.021,2.111,0.696l4.758-1.985c1.544,1.535,3.311,2.867,5.274,3.931l-0.534,5.122
				c-0.088,0.839,0.455,1.615,1.273,1.822l6.487,1.636c0.818,0.206,1.664-0.22,1.985-1l1.959-4.763
				c2.233-0.006,4.42-0.34,6.507-0.96l3.248,4.004c0.532,0.655,1.464,0.821,2.188,0.388l5.744-3.43
				c0.725-0.433,1.021-1.332,0.696-2.111l-1.985-4.758c1.535-1.544,2.867-3.311,3.931-5.274l5.122,0.534
				c0.839,0.088,1.615-0.455,1.822-1.273l1.636-6.487C274.429,193.726,274.003,192.88,273.223,192.559z M230.195,186.889
				c2.095-8.305,10.525-13.339,18.829-11.244c8.305,2.095,13.339,10.525,11.244,18.829c-2.095,8.305-10.525,13.339-18.829,11.244
				C233.134,203.624,228.1,195.193,230.195,186.889z"/>
		</g>
	</g>
	<g>
		<g>
			<g>
				<g>
					<g>
						<g>
							
								<linearGradient id="SVGID_00000171709315415629624350000013706548413993223045_" gradientUnits="userSpaceOnUse" x1="219.4931" y1="288.4897" x2="216.9588" y2="389.0175">
								<stop  offset="0.0056" style="stop-color:#14275B"/>
								<stop  offset="1" style="stop-color:#061139"/>
							</linearGradient>
							<path style="fill:url(#SVGID_00000171709315415629624350000013706548413993223045_);" d="M364.307,195.953H73.734
								c-4.947,0-8.957,4.01-8.957,8.957v204.643c0,4.947,4.01,8.957,8.957,8.957h290.573c4.947,0,8.957-4.01,8.957-8.957V204.91
								C373.264,199.963,369.254,195.953,364.307,195.953z"/>
						</g>
						
							<linearGradient id="SVGID_00000177481904444696441520000010174836690928425645_" gradientUnits="userSpaceOnUse" x1="219.5297" y1="228.4811" x2="217.8919" y2="436.4742">
							<stop  offset="0" style="stop-color:#E8F5FF"/>
							<stop  offset="0.2254" style="stop-color:#E5F3FF"/>
							<stop  offset="0.3985" style="stop-color:#DBECFF"/>
							<stop  offset="0.5542" style="stop-color:#CBE0FF"/>
							<stop  offset="0.6996" style="stop-color:#B4CFFF"/>
							<stop  offset="0.8379" style="stop-color:#96B9FF"/>
							<stop  offset="0.9691" style="stop-color:#729FFF"/>
							<stop  offset="1" style="stop-color:#6898FF"/>
						</linearGradient>
						<path style="fill:url(#SVGID_00000177481904444696441520000010174836690928425645_);" d="M366.941,376.011V210.267
							c0-4.733-3.837-8.57-8.57-8.57H79.67c-4.733,0-8.57,3.837-8.57,8.57v165.744H366.941z"/>
						<g>
							<g>
								<g>
									<text transform="matrix(1 0 0 1 84.0247 215.5079)"><tspan x="0" y="0" style="fill:#14275B; font-family:'Montserrat-Medium'; font-size:7.9818px;">Work</tspan><tspan x="22.245" y="0" style="fill:#14275B; font-family:'Montserrat-Bold'; font-size:7.9818px;">Logo</tspan></text>
									<g>
										<g>
											<g>
												
													<text transform="matrix(1 0 0 1 259.349 215.4845)" style="fill:#061139; font-family:'Montserrat-ExtraBold'; font-size:4.2102px;">Home</text>
											</g>
										</g>
										<g>
											
												<text transform="matrix(1 0 0 1 279.2679 215.4845)" style="fill:#061139; font-family:'Montserrat-Regular'; font-size:4.2102px;">About</text>
										</g>
										<g>
											
												<text transform="matrix(1 0 0 1 300.1009 215.4845)" style="fill:#061139; font-family:'Montserrat-Regular'; font-size:4.2102px;">Work</text>
										</g>
										<g>
											
												<text transform="matrix(1 0 0 1 318.9652 215.4845)" style="fill:#061139; font-family:'Montserrat-Regular'; font-size:4.2102px;">Galery</text>
										</g>
										<g>
											
												<text transform="matrix(1 0 0 1 337.2884 215.4845)" style="fill:#061139; font-family:'Montserrat-Regular'; font-size:4.2102px;">Contact</text>
										</g>
									</g>
								</g>
							</g>
							<g>
								
									<linearGradient id="SVGID_00000181045512628385520460000000293753867813942941_" gradientUnits="userSpaceOnUse" x1="291.9886" y1="206.7741" x2="210.5947" y2="321.9037">
									<stop  offset="0" style="stop-color:#6898FF"/>
									<stop  offset="1" style="stop-color:#A061FF"/>
								</linearGradient>
								
									<rect x="71.1" y="240.562" style="fill:url(#SVGID_00000181045512628385520460000000293753867813942941_);" width="295.841" height="138.847"/>
								
									<linearGradient id="SVGID_00000109029671728526420800000000780553730221292719_" gradientUnits="userSpaceOnUse" x1="167.5081" y1="304.3694" x2="133.4652" y2="366.9046">
									<stop  offset="0" style="stop-color:#6898FF"/>
									<stop  offset="1" style="stop-color:#A061FF"/>
								</linearGradient>
								<path style="fill:url(#SVGID_00000109029671728526420800000000780553730221292719_);" d="M215.81,379.409
									c-4.439-2.281-8.284-5.961-11.519-10.386c-4.804-6.57-8.249-14.266-12.092-21.664c-4.31-8.295-9.388-16.297-15.213-23.072
									c-11.313-13.16-25.561-18.655-40.915-19.586c-15.597-0.946-31.655,0.962-46.809,5.546
									c-6.112,1.849-12.301,4.247-18.161,7.453v61.709H215.81z"/>
								
									<linearGradient id="SVGID_00000018223951629857224090000018360260181960822917_" gradientUnits="userSpaceOnUse" x1="285.0514" y1="368.3575" x2="251.0086" y2="430.8927">
									<stop  offset="0" style="stop-color:#6898FF"/>
									<stop  offset="1" style="stop-color:#A061FF"/>
								</linearGradient>
								<path style="fill:url(#SVGID_00000018223951629857224090000018360260181960822917_);" d="M314.551,379.409
									c-5.193-2.929-10.977-5.218-17.445-6.713c-18.065-4.177-36.078,2.472-53.586,6.713H314.551z"/>
								
									<linearGradient id="SVGID_00000137105489315025528170000000258560800489156786_" gradientUnits="userSpaceOnUse" x1="117.9938" y1="353.1011" x2="82.0526" y2="417.3596">
									<stop  offset="0" style="stop-color:#6898FF"/>
									<stop  offset="1" style="stop-color:#A061FF"/>
								</linearGradient>
								<path style="fill:url(#SVGID_00000137105489315025528170000000258560800489156786_);" d="M151.889,379.409
									C130.501,323.757,71.1,350.034,71.1,350.034v29.375H151.889z"/>
							</g>
							<path style="fill:#14275B;" d="M344.851,377.912H219.145c-3.002,0-5.436-2.434-5.436-5.436V236.453
								c0-3.002,2.434-5.436,5.436-5.436h125.706c3.002,0,5.436,2.434,5.436,5.436v136.022
								C350.287,375.478,347.853,377.912,344.851,377.912z"/>
							<g>
								<g>
									<text transform="matrix(1 0 0 1 107.2757 281.8771)"><tspan x="0" y="0" style="fill:#FFFFFF; font-family:'Montserrat-ExtraBold'; font-size:19.2236px;">RES</tspan><tspan x="0" y="17.419" style="fill:#FFFFFF; font-family:'Montserrat-ExtraBold'; font-size:19.2236px;">PON</tspan><tspan x="0" y="34.838" style="fill:#FFFFFF; font-family:'Montserrat-ExtraBold'; font-size:19.2236px;">SIVE</tspan><tspan x="0" y="53.719" style="fill:#FFFFFF; font-family:'Montserrat-Medium'; font-size:20.3108px;">WEBSITE </tspan><tspan x="0" y="72.599" style="fill:#FFFFFF; font-family:'Montserrat-Light'; font-size:21.2553px;">DESIGN</tspan></text>
								</g>
								<g>
									<rect x="232.393" y="323.191" style="fill:none;" width="102.622" height="37.131"/>
									<text transform="matrix(1 0 0 1 238.4007 326.4279)"><tspan x="0" y="0" style="fill:#FFFFFF; font-family:'Montserrat-Light'; font-size:4.362px;">Lorem ipsum dolor sit amet, consectetuer </tspan><tspan x="1.657" y="5.234" style="fill:#FFFFFF; font-family:'Montserrat-Light'; font-size:4.362px;">adipiscing elit, sed diam nonummy nibh </tspan><tspan x="-1.547" y="10.469" style="fill:#FFFFFF; font-family:'Montserrat-Light'; font-size:4.362px;">euismod tincidunt ut laoreet dolore magna </tspan><tspan x="-3.612" y="15.703" style="fill:#FFFFFF; font-family:'Montserrat-Light'; font-size:4.362px;">aliquam erat volutpat. Ut wisi enim ad minim </tspan><tspan x="-5.1" y="20.938" style="fill:#FFFFFF; font-family:'Montserrat-Light'; font-size:4.362px;">veniam, quis nostrud exerci tation ullamcorper </tspan><tspan x="-4.685" y="26.172" style="fill:#FFFFFF; font-family:'Montserrat-Light'; font-size:4.362px;">suscipit lobortis nisl ut aliquip ex ea commodo </tspan><tspan x="33.421" y="31.406" style="fill:#FFFFFF; font-family:'Montserrat-Light'; font-size:4.362px;">consequat. </tspan></text>
								</g>
							</g>
							<g>
								
									<linearGradient id="SVGID_00000072973837369897197650000003690114262322577072_" gradientUnits="userSpaceOnUse" x1="291.1544" y1="216.2392" x2="279.7296" y2="313.7582">
									<stop  offset="0" style="stop-color:#E8F5FF"/>
									<stop  offset="0.2254" style="stop-color:#E5F3FF"/>
									<stop  offset="0.3985" style="stop-color:#DBECFF"/>
									<stop  offset="0.5542" style="stop-color:#CBE0FF"/>
									<stop  offset="0.6996" style="stop-color:#B4CFFF"/>
									<stop  offset="0.8379" style="stop-color:#96B9FF"/>
									<stop  offset="0.9691" style="stop-color:#729FFF"/>
									<stop  offset="1" style="stop-color:#6898FF"/>
								</linearGradient>
								<path style="fill:url(#SVGID_00000072973837369897197650000003690114262322577072_);" d="M311.856,252.826h-56.304
									c-0.691,0-1.25,0.559-1.25,1.25v51.515c0,0.691,0.559,1.25,1.25,1.25h56.304c0.691,0,1.25-0.559,1.25-1.25v-51.515
									C313.106,253.385,312.547,252.826,311.856,252.826z M310.606,255.326v33.305c-0.079-0.108-0.16-0.216-0.256-0.312
									l-6.515-6.515c-1.033-1.033-2.707-1.033-3.739,0l-5.632,5.633c-1.033,1.033-2.707,1.033-3.739,0l-14.361-14.361
									c-0.993-0.993-2.588-1.037-3.634-0.1l-15.926,14.266v-31.915H310.606z"/>
								
									<linearGradient id="SVGID_00000089562592026393831160000009504548280876558777_" gradientUnits="userSpaceOnUse" x1="300.7098" y1="217.3586" x2="289.2849" y2="314.8776">
									<stop  offset="0" style="stop-color:#E8F5FF"/>
									<stop  offset="0.2254" style="stop-color:#E5F3FF"/>
									<stop  offset="0.3985" style="stop-color:#DBECFF"/>
									<stop  offset="0.5542" style="stop-color:#CBE0FF"/>
									<stop  offset="0.6996" style="stop-color:#B4CFFF"/>
									<stop  offset="0.8379" style="stop-color:#96B9FF"/>
									<stop  offset="0.9691" style="stop-color:#729FFF"/>
									<stop  offset="1" style="stop-color:#6898FF"/>
								</linearGradient>
								<path style="fill:url(#SVGID_00000089562592026393831160000009504548280876558777_);" d="M294.992,269.867
									c2.047,0,3.706-1.659,3.706-3.706c0-2.047-1.659-3.706-3.706-3.706c-2.047,0-3.705,1.659-3.705,3.706
									C291.287,268.208,292.946,269.867,294.992,269.867z"/>
							</g>
						</g>
						<g>
							
								<linearGradient id="SVGID_00000084508817415611429670000000595938277460528525_" gradientUnits="userSpaceOnUse" x1="218.2834" y1="424.574" x2="217.7202" y2="404.0179">
								<stop  offset="0.0056" style="stop-color:#14275B"/>
								<stop  offset="1" style="stop-color:#061139"/>
							</linearGradient>
							<path style="fill:url(#SVGID_00000084508817415611429670000000595938277460528525_);" d="M392.658,421.62H42.9
								c-6.225,0-11.271-5.046-11.271-11.271v-8.536h372.299v8.536C403.929,416.574,398.882,421.62,392.658,421.62z"/>
						</g>
						<g>
							<path style="fill:#14275B;" d="M265.144,411.716h-92.247c-3.005,0-5.441-2.436-5.441-5.441v-4.463h103.128v4.463
								C270.585,409.281,268.149,411.716,265.144,411.716z"/>
						</g>
					</g>
					<g>
						
							<linearGradient id="SVGID_00000144336958324826844660000011963537183083178375_" gradientUnits="userSpaceOnUse" x1="217.7789" y1="425.5043" x2="217.7789" y2="383.5474">
							<stop  offset="0.0056" style="stop-color:#14275B"/>
							<stop  offset="1" style="stop-color:#061139"/>
						</linearGradient>
						<polygon style="fill:url(#SVGID_00000144336958324826844660000011963537183083178375_);" points="31.629,401.813 
							64.778,381.002 373.264,381.002 403.929,401.813 						"/>
					</g>
					<g>
						<polygon style="fill:#14275B;" points="367.498,384.702 67.6,384.702 48.778,397.752 386.32,397.752 						"/>
					</g>
				</g>
			</g>
		</g>
		<g>
			<g style="opacity:0.19;">
				<path style="fill:#14275B;" d="M577.775,331.113H412.431c-2.826,0-5.116-2.291-5.116-5.116V96.086
					c0-2.826,2.291-5.116,5.116-5.116h165.344c2.826,0,5.116,2.291,5.116,5.116v229.912
					C582.891,328.823,580.601,331.113,577.775,331.113z"/>
			</g>
			<g>
				
					<linearGradient id="SVGID_00000149383669325692607870000003979437688018191281_" gradientUnits="userSpaceOnUse" x1="412.0768" y1="202.4561" x2="594.7297" y2="202.4561">
					<stop  offset="0.0056" style="stop-color:#14275B"/>
					<stop  offset="1" style="stop-color:#061139"/>
				</linearGradient>
				<path style="fill:url(#SVGID_00000149383669325692607870000003979437688018191281_);" d="M589.425,326.532H417.381
					c-2.93,0-5.304-2.375-5.304-5.304V83.685c0-2.93,2.375-5.304,5.304-5.304h172.044c2.93,0,5.304,2.375,5.304,5.304v237.543
					C594.73,324.157,592.355,326.532,589.425,326.532z"/>
			</g>
			
				<linearGradient id="SVGID_00000101090835579734969980000009545710752103976111_" gradientUnits="userSpaceOnUse" x1="502.6594" y1="156.3241" x2="505.9629" y2="391.6985">
				<stop  offset="0" style="stop-color:#E8F5FF"/>
				<stop  offset="0.2254" style="stop-color:#E5F3FF"/>
				<stop  offset="0.3985" style="stop-color:#DBECFF"/>
				<stop  offset="0.5542" style="stop-color:#CBE0FF"/>
				<stop  offset="0.6996" style="stop-color:#B4CFFF"/>
				<stop  offset="0.8379" style="stop-color:#96B9FF"/>
				<stop  offset="0.9691" style="stop-color:#729FFF"/>
				<stop  offset="1" style="stop-color:#6898FF"/>
			</linearGradient>
			<path style="fill:url(#SVGID_00000101090835579734969980000009545710752103976111_);" d="M585.979,322.528H420.635
				c-2.826,0-5.116-2.291-5.116-5.116V87.5c0-2.826,2.291-5.116,5.116-5.116h165.344c2.826,0,5.116,2.291,5.116,5.116v229.912
				C591.095,320.237,588.804,322.528,585.979,322.528z"/>
			<g>
				<g>
					<g>
						<text transform="matrix(1 0 0 1 423.4203 91.0538)"><tspan x="0" y="0" style="fill:#14275B; font-family:'Montserrat-Medium'; font-size:4.729px;">Work</tspan><tspan x="13.18" y="0" style="fill:#14275B; font-family:'Montserrat-Bold'; font-size:4.729px;">Logo</tspan></text>
						<g>
							<g>
								<g>
									
										<text transform="matrix(1 0 0 1 527.2962 91.0402)" style="fill:#061139; font-family:'Montserrat-ExtraBold'; font-size:2.4945px;">Home</text>
								</g>
							</g>
							<g>
								
									<text transform="matrix(1 0 0 1 539.096 91.0402)" style="fill:#061139; font-family:'Montserrat-Regular'; font-size:2.4945px;">About</text>
							</g>
							<g>
								
									<text transform="matrix(1 0 0 1 551.4417 91.0402)" style="fill:#061139; font-family:'Montserrat-Regular'; font-size:2.4945px;">Work</text>
							</g>
							<g>
								
									<text transform="matrix(1 0 0 1 562.6185 91.0402)" style="fill:#061139; font-family:'Montserrat-Regular'; font-size:2.4945px;">Galery</text>
							</g>
							<g>
								
									<text transform="matrix(1 0 0 1 573.4739 91.0402)" style="fill:#061139; font-family:'Montserrat-Regular'; font-size:2.4945px;">Contact</text>
							</g>
						</g>
					</g>
				</g>
				<g>
					
						<linearGradient id="SVGID_00000023994849998715623650000005985450216931433630_" gradientUnits="userSpaceOnUse" x1="571.9986" y1="103.5854" x2="523.7134" y2="171.8834">
						<stop  offset="0" style="stop-color:#6898FF"/>
						<stop  offset="1" style="stop-color:#A061FF"/>
					</linearGradient>
					<polygon style="fill:url(#SVGID_00000023994849998715623650000005985450216931433630_);" points="591.041,105.657 
						415.54,105.657 415.54,207.541 591.041,295.884 					"/>
					
						<linearGradient id="SVGID_00000089559615706266426460000017953914490685726863_" gradientUnits="userSpaceOnUse" x1="525.0372" y1="171.9832" x2="504.8421" y2="209.0808">
						<stop  offset="0" style="stop-color:#6898FF"/>
						<stop  offset="1" style="stop-color:#A061FF"/>
					</linearGradient>
					<path style="fill:url(#SVGID_00000089559615706266426460000017953914490685726863_);" d="M549.613,184.042
						c-11.265-2.605-22.496,1.888-33.381,4.358c-4.312,0.978-8.72,1.891-13.035,0.415c-3.418-1.169-6.297-3.74-8.645-6.951
						c-2.85-3.897-4.893-8.463-7.174-12.852c-2.557-4.921-5.569-9.668-9.025-13.687c-6.711-7.807-15.163-11.067-24.272-11.619
						c-9.253-0.561-18.779,0.57-27.768,3.29c-3.626,1.097-7.297,2.52-10.774,4.421v56.124l165.486,83.302
						C584.694,270.445,595.278,194.601,549.613,184.042z"/>
					
						<linearGradient id="SVGID_00000089542345681943849750000001806400402161789602_" gradientUnits="userSpaceOnUse" x1="494.6311" y1="201.0961" x2="473.3098" y2="239.216">
						<stop  offset="0" style="stop-color:#6898FF"/>
						<stop  offset="1" style="stop-color:#A061FF"/>
					</linearGradient>
					<path style="fill:url(#SVGID_00000089542345681943849750000001806400402161789602_);" d="M534.141,229.147
						c-22.057-21.687-54.617,20.858-68.681-34.802c-10.417-41.23-49.921-23.747-49.921-23.747v36.942l133.928,67.416
						C550.321,261.007,548.025,242.798,534.141,229.147z"/>
				</g>
				<path style="fill:#14275B;" d="M577.953,187.275h-74.478c-1.779,0-3.221-1.442-3.221-3.221v-80.59
					c0-1.779,1.442-3.221,3.221-3.221h74.478c1.779,0,3.221,1.442,3.221,3.221v80.59
					C581.174,185.833,579.732,187.275,577.953,187.275z"/>
				
					<linearGradient id="SVGID_00000031917086466972833310000004267552953687127226_" gradientUnits="userSpaceOnUse" x1="580.0675" y1="268.8083" x2="580.0675" y2="268.8083">
					<stop  offset="0" style="stop-color:#6898FF"/>
					<stop  offset="1" style="stop-color:#A061FF"/>
				</linearGradient>
				<path style="fill:url(#SVGID_00000031917086466972833310000004267552953687127226_);" d="M580.068,268.808"/>
				<path style="fill:#84D8FF;" d="M575.782,257.732h-144.76c-1.379,0-2.497-1.118-2.497-2.497v-48.684
					c0-1.379,1.118-2.497,2.497-2.497h144.76c1.379,0,2.497,1.118,2.497,2.497v48.684
					C578.279,256.614,577.161,257.732,575.782,257.732z"/>
				<g>
					<g>
						<path style="fill:#FFFFFF;" d="M467.608,308.933h-36.341c-1.514,0-2.741-1.227-2.741-2.741v-33.099
							c0-1.514,1.227-2.741,2.741-2.741h36.341c1.514,0,2.741,1.227,2.741,2.741v33.099
							C470.348,307.706,469.121,308.933,467.608,308.933z"/>
					</g>
					
						<linearGradient id="SVGID_00000153677044049898589500000011843730402463480219_" gradientUnits="userSpaceOnUse" x1="446.9124" y1="295.4646" x2="463.1203" y2="244.4271">
						<stop  offset="0" style="stop-color:#6898FF"/>
						<stop  offset="1" style="stop-color:#A061FF"/>
					</linearGradient>
					<path style="fill:url(#SVGID_00000153677044049898589500000011843730402463480219_);" d="M455.655,287.39l-2.865-5.208
						c-0.047-0.085-0.137-0.13-0.235-0.135c-0.097,0.003-0.185,0.059-0.228,0.147l-0.992,2.053l-2.941-5.391v-0.975h2.865
						c0.105,0,0.201-0.064,0.24-0.161c0.041-0.097,0.018-0.209-0.056-0.284l-0.857-0.857l0.858-0.857
						c0.074-0.074,0.097-0.186,0.056-0.284c-0.04-0.097-0.135-0.161-0.241-0.161h-3.125c-0.144,0-0.26,0.117-0.26,0.26v3.319
						l-4.656,8.536c-0.044,0.081-0.042,0.179,0.005,0.258c0.047,0.079,0.132,0.128,0.224,0.128h9.375l0,0l0,0h2.604l0,0
						c0.092,0,0.177-0.048,0.224-0.128C455.698,287.569,455.699,287.471,455.655,287.39z M448.134,279.466l1.332,2.443l-0.523,0.523
						l-0.601-0.802c-0.098-0.131-0.319-0.131-0.417,0l-0.601,0.802l-0.523-0.523L448.134,279.466z"/>
					<g>
						<rect x="434.387" y="296.463" style="fill:none;" width="30.159" height="7.964"/>
						<text transform="matrix(1 0 0 1 434.8988 297.632)"><tspan x="0" y="0" style="fill:#84D8FF; font-family:'Montserrat-Light'; font-size:1.5758px;">Sit amet, consectetuer adipiscing elit, </tspan><tspan x="0.939" y="1.892" style="fill:#84D8FF; font-family:'Montserrat-Light'; font-size:1.5758px;">sed diam nonummy nibh euismod </tspan><tspan x="1.284" y="3.782" style="fill:#84D8FF; font-family:'Montserrat-Light'; font-size:1.5758px;">tincidunt ut laoreet dolore magna </tspan><tspan x="5.97" y="5.673" style="fill:#84D8FF; font-family:'Montserrat-Light'; font-size:1.5758px;">aliquam erat volutpat.</tspan></text>
						
							<text transform="matrix(1 0 0 1 437.0609 294.4015)" style="fill:#84D8FF; font-family:'Montserrat-SemiBold'; font-size:3.1516px;">LOREM IPSUM</text>
					</g>
					<g>
						<path style="fill:#FFFFFF;" d="M521.573,308.933h-36.341c-1.514,0-2.741-1.227-2.741-2.741v-33.099
							c0-1.514,1.227-2.741,2.741-2.741h36.341c1.514,0,2.741,1.227,2.741,2.741v33.099
							C524.314,307.706,523.087,308.933,521.573,308.933z"/>
					</g>
					
						<linearGradient id="SVGID_00000170988987856834883520000009740019047507178124_" gradientUnits="userSpaceOnUse" x1="493.7237" y1="310.3304" x2="509.9315" y2="259.2928">
						<stop  offset="0" style="stop-color:#6898FF"/>
						<stop  offset="1" style="stop-color:#A061FF"/>
					</linearGradient>
					<path style="fill:url(#SVGID_00000170988987856834883520000009740019047507178124_);" d="M502.871,275.164
						c-3.508,0-6.362,2.854-6.362,6.362c0,3.508,2.854,6.362,6.362,6.362c3.508,0,6.362-2.854,6.362-6.362
						C509.233,278.018,506.379,275.164,502.871,275.164z M507.068,285.106c-0.184-0.162-0.375-0.315-0.574-0.454
						c0.268-0.853,0.418-1.767,0.454-2.706h1.424C508.281,283.147,507.807,284.241,507.068,285.106z M497.37,281.946h1.424
						c0.036,0.941,0.186,1.855,0.455,2.709c-0.199,0.139-0.389,0.291-0.573,0.453C497.936,284.243,497.461,283.148,497.37,281.946z
						 M498.655,277.967c0.187,0.167,0.381,0.323,0.584,0.465c-0.262,0.844-0.41,1.746-0.445,2.674h-1.424
						C497.46,279.915,497.927,278.829,498.655,277.967z M504.359,276.293c0.416,0.548,0.756,1.169,1.018,1.84
						c-0.645,0.329-1.351,0.527-2.087,0.582v-2.69c0.352,0.027,0.693,0.087,1.024,0.177
						C504.329,276.232,504.338,276.265,504.359,276.293z M505.87,276.896c0.221,0.144,0.43,0.303,0.627,0.476
						c-0.095,0.083-0.193,0.162-0.292,0.238C506.103,277.365,505.991,277.127,505.87,276.896z M502.451,281.106h-2.694
						c0.032-0.752,0.147-1.482,0.342-2.171c0.731,0.355,1.525,0.566,2.353,0.62V281.106z M502.451,281.946v1.592
						c-0.824,0.054-1.615,0.264-2.343,0.616c-0.201-0.7-0.319-1.443-0.352-2.208H502.451z M503.291,281.946h2.694
						c-0.032,0.765-0.15,1.506-0.351,2.207c-0.728-0.352-1.52-0.561-2.343-0.615V281.946z M503.291,281.106v-1.551
						c0.827-0.054,1.622-0.265,2.352-0.62c0.195,0.69,0.31,1.419,0.342,2.171H503.291z M502.451,278.715
						c-0.736-0.055-1.442-0.253-2.087-0.582c0.263-0.671,0.602-1.292,1.019-1.84c0.021-0.028,0.03-0.061,0.044-0.091
						c0.33-0.09,0.672-0.15,1.024-0.177V278.715z M499.537,277.609c-0.1-0.076-0.197-0.155-0.292-0.238
						c0.197-0.173,0.406-0.332,0.626-0.475C499.751,277.127,499.638,277.365,499.537,277.609z M499.551,285.475
						c0.098,0.233,0.204,0.46,0.319,0.68c-0.211-0.137-0.412-0.289-0.602-0.453C499.36,285.623,499.455,285.548,499.551,285.475z
						 M501.383,286.759c-0.409-0.538-0.745-1.146-1.006-1.804c0.641-0.326,1.343-0.522,2.074-0.577v2.649
						c-0.352-0.027-0.693-0.087-1.024-0.177C501.413,286.82,501.404,286.787,501.383,286.759z M503.291,284.378
						c0.731,0.055,1.433,0.25,2.075,0.576c-0.261,0.658-0.597,1.267-1.006,1.806c-0.021,0.028-0.03,0.06-0.044,0.09
						c-0.331,0.09-0.673,0.15-1.024,0.177V284.378z M506.192,285.472c0.097,0.073,0.192,0.148,0.284,0.228
						c-0.191,0.165-0.393,0.318-0.605,0.456C505.986,285.934,506.093,285.706,506.192,285.472z M506.948,281.106
						c-0.036-0.928-0.184-1.83-0.445-2.673c0.203-0.142,0.397-0.298,0.585-0.465c0.728,0.861,1.194,1.948,1.285,3.138H506.948z"/>
					<g>
						<rect x="487.791" y="296.463" style="fill:none;" width="30.159" height="7.964"/>
						<text transform="matrix(1 0 0 1 488.3031 297.632)"><tspan x="0" y="0" style="fill:#84D8FF; font-family:'Montserrat-Light'; font-size:1.5758px;">Sit amet, consectetuer adipiscing elit, </tspan><tspan x="0.938" y="1.892" style="fill:#84D8FF; font-family:'Montserrat-Light'; font-size:1.5758px;">sed diam nonummy nibh euismod </tspan><tspan x="1.284" y="3.782" style="fill:#84D8FF; font-family:'Montserrat-Light'; font-size:1.5758px;">tincidunt ut laoreet dolore magna </tspan><tspan x="5.969" y="5.673" style="fill:#84D8FF; font-family:'Montserrat-Light'; font-size:1.5758px;">aliquam erat volutpat.</tspan></text>
						
							<text transform="matrix(1 0 0 1 490.4652 294.4015)" style="fill:#84D8FF; font-family:'Montserrat-SemiBold'; font-size:3.1516px;">LOREM IPSUM</text>
					</g>
					<g>
						<path style="fill:#FFFFFF;" d="M575.538,308.933h-36.341c-1.514,0-2.741-1.227-2.741-2.741v-33.099
							c0-1.514,1.227-2.741,2.741-2.741h36.341c1.514,0,2.741,1.227,2.741,2.741v33.099
							C578.279,307.706,577.052,308.933,575.538,308.933z"/>
					</g>
					<g>
						<g>
							
								<linearGradient id="SVGID_00000150794698216522081270000007234186928899766958_" gradientUnits="userSpaceOnUse" x1="540.0459" y1="297.287" x2="565.3" y2="274.308">
								<stop  offset="0" style="stop-color:#6898FF"/>
								<stop  offset="1" style="stop-color:#A061FF"/>
							</linearGradient>
							
								<circle style="fill:url(#SVGID_00000150794698216522081270000007234186928899766958_);" cx="557.367" cy="281.526" r="1.498"/>
						</g>
						
							<linearGradient id="SVGID_00000065770847900878388480000004862456767870919310_" gradientUnits="userSpaceOnUse" x1="543.2276" y1="326.0512" x2="559.4355" y2="275.0137">
							<stop  offset="0" style="stop-color:#6898FF"/>
							<stop  offset="1" style="stop-color:#A061FF"/>
						</linearGradient>
						<path style="fill:url(#SVGID_00000065770847900878388480000004862456767870919310_);" d="M563.836,279.898l-1.221-0.094
							c-0.165-0.504-0.401-0.975-0.694-1.401l0.667-1.028c0.109-0.168,0.078-0.391-0.073-0.523l-1.197-1.048
							c-0.151-0.132-0.376-0.133-0.528-0.003l-0.931,0.798c-0.462-0.234-0.959-0.406-1.481-0.502l-0.255-1.198
							c-0.042-0.196-0.221-0.332-0.422-0.319l-1.587,0.106c-0.2,0.013-0.36,0.172-0.376,0.372l-0.094,1.221
							c-0.504,0.165-0.975,0.401-1.401,0.694l-1.028-0.667c-0.168-0.109-0.391-0.078-0.523,0.073l-1.048,1.197
							c-0.132,0.151-0.133,0.376-0.003,0.528l0.798,0.931c-0.234,0.462-0.406,0.959-0.502,1.481l-1.198,0.255
							c-0.196,0.042-0.332,0.221-0.319,0.421l0.106,1.587c0.013,0.2,0.172,0.36,0.372,0.376l1.221,0.094
							c0.165,0.504,0.401,0.975,0.694,1.401l-0.667,1.028c-0.109,0.168-0.078,0.391,0.073,0.523l1.197,1.048
							c0.151,0.132,0.376,0.133,0.528,0.003l0.931-0.798c0.462,0.234,0.959,0.406,1.481,0.502l0.255,1.198
							c0.042,0.196,0.221,0.332,0.422,0.319l1.587-0.106c0.2-0.013,0.36-0.172,0.376-0.372l0.094-1.221
							c0.504-0.165,0.975-0.401,1.401-0.694l1.028,0.667c0.168,0.109,0.391,0.078,0.523-0.073l1.048-1.197
							c0.132-0.151,0.133-0.376,0.003-0.528l-0.798-0.931c0.234-0.462,0.406-0.959,0.502-1.481l1.198-0.255
							c0.196-0.042,0.332-0.221,0.319-0.421l-0.106-1.587C564.194,280.074,564.036,279.914,563.836,279.898z M553.689,281.771
							c-0.135-2.032,1.402-3.788,3.434-3.924c2.032-0.135,3.788,1.402,3.924,3.434s-1.402,3.788-3.434,3.924
							C555.58,285.34,553.824,283.803,553.689,281.771z"/>
					</g>
					<g>
						<rect x="542.288" y="296.463" style="fill:none;" width="30.159" height="7.964"/>
						<text transform="matrix(1 0 0 1 542.7991 297.632)"><tspan x="0" y="0" style="fill:#84D8FF; font-family:'Montserrat-Light'; font-size:1.5758px;">Sit amet, consectetuer adipiscing elit, </tspan><tspan x="0.939" y="1.892" style="fill:#84D8FF; font-family:'Montserrat-Light'; font-size:1.5758px;">sed diam nonummy nibh euismod </tspan><tspan x="1.284" y="3.782" style="fill:#84D8FF; font-family:'Montserrat-Light'; font-size:1.5758px;">tincidunt ut laoreet dolore magna </tspan><tspan x="5.97" y="5.673" style="fill:#84D8FF; font-family:'Montserrat-Light'; font-size:1.5758px;">aliquam erat volutpat.</tspan></text>
						
							<text transform="matrix(1 0 0 1 544.9612 294.4015)" style="fill:#84D8FF; font-family:'Montserrat-SemiBold'; font-size:3.1516px;">LOREM IPSUM</text>
					</g>
				</g>
				<g>
					<g>
						<text transform="matrix(1 0 0 1 437.1976 130.378)"><tspan x="0" y="0" style="fill:#FFFFFF; font-family:'Montserrat-ExtraBold'; font-size:11.3895px;">RES</tspan><tspan x="0" y="10.32" style="fill:#FFFFFF; font-family:'Montserrat-ExtraBold'; font-size:11.3895px;">PON</tspan><tspan x="0" y="20.641" style="fill:#FFFFFF; font-family:'Montserrat-ExtraBold'; font-size:11.3895px;">SIVE</tspan><tspan x="0" y="31.827" style="fill:#FFFFFF; font-family:'Montserrat-Medium'; font-size:12.0337px;">WEBSITE </tspan><tspan x="0" y="43.013" style="fill:#FFFFFF; font-family:'Montserrat-Light'; font-size:12.5933px;">DESIGN</tspan></text>
					</g>
					<g>
						<rect x="511.325" y="154.854" style="fill:none;" width="60.801" height="21.999"/>
						<text transform="matrix(1 0 0 1 514.8841 156.7716)"><tspan x="0" y="0" style="fill:#FFFFFF; font-family:'Montserrat-Light'; font-size:2.5844px;">Lorem ipsum dolor sit amet, consectetuer </tspan><tspan x="0.982" y="3.101" style="fill:#FFFFFF; font-family:'Montserrat-Light'; font-size:2.5844px;">adipiscing elit, sed diam nonummy nibh </tspan><tspan x="-0.916" y="6.202" style="fill:#FFFFFF; font-family:'Montserrat-Light'; font-size:2.5844px;">euismod tincidunt ut laoreet dolore magna </tspan><tspan x="-2.14" y="9.304" style="fill:#FFFFFF; font-family:'Montserrat-Light'; font-size:2.5844px;">aliquam erat volutpat. Ut wisi enim ad minim </tspan><tspan x="-3.021" y="12.404" style="fill:#FFFFFF; font-family:'Montserrat-Light'; font-size:2.5844px;">veniam, quis nostrud exerci tation ullamcorper </tspan><tspan x="-2.775" y="15.506" style="fill:#FFFFFF; font-family:'Montserrat-Light'; font-size:2.5844px;">suscipit lobortis nisl ut aliquip ex ea commodo </tspan><tspan x="19.802" y="18.607" style="fill:#FFFFFF; font-family:'Montserrat-Light'; font-size:2.5844px;">consequat. </tspan></text>
					</g>
				</g>
				<g>
					
						<linearGradient id="SVGID_00000142878251425916039950000004691046212052156829_" gradientUnits="userSpaceOnUse" x1="546.1396" y1="91.4877" x2="539.3707" y2="149.2653">
						<stop  offset="0" style="stop-color:#E8F5FF"/>
						<stop  offset="0.2254" style="stop-color:#E5F3FF"/>
						<stop  offset="0.3985" style="stop-color:#DBECFF"/>
						<stop  offset="0.5542" style="stop-color:#CBE0FF"/>
						<stop  offset="0.6996" style="stop-color:#B4CFFF"/>
						<stop  offset="0.8379" style="stop-color:#96B9FF"/>
						<stop  offset="0.9691" style="stop-color:#729FFF"/>
						<stop  offset="1" style="stop-color:#6898FF"/>
					</linearGradient>
					<path style="fill:url(#SVGID_00000142878251425916039950000004691046212052156829_);" d="M558.405,113.164h-33.358
						c-0.409,0-0.741,0.331-0.741,0.741v30.521c0,0.41,0.331,0.741,0.741,0.741h33.358c0.409,0,0.741-0.331,0.741-0.741v-30.521
						C559.145,113.495,558.814,113.164,558.405,113.164z M557.664,114.646v19.732c-0.047-0.064-0.095-0.128-0.152-0.185l-3.86-3.86
						c-0.612-0.612-1.604-0.612-2.216,0l-3.337,3.337c-0.612,0.612-1.604,0.612-2.215,0l-8.509-8.509
						c-0.588-0.588-1.533-0.614-2.153-0.059l-9.436,8.452v-18.909H557.664z"/>
					
						<linearGradient id="SVGID_00000047053472416091533650000010820750897642320277_" gradientUnits="userSpaceOnUse" x1="551.8008" y1="92.1509" x2="545.0319" y2="149.9285">
						<stop  offset="0" style="stop-color:#E8F5FF"/>
						<stop  offset="0.2254" style="stop-color:#E5F3FF"/>
						<stop  offset="0.3985" style="stop-color:#DBECFF"/>
						<stop  offset="0.5542" style="stop-color:#CBE0FF"/>
						<stop  offset="0.6996" style="stop-color:#B4CFFF"/>
						<stop  offset="0.8379" style="stop-color:#96B9FF"/>
						<stop  offset="0.9691" style="stop-color:#729FFF"/>
						<stop  offset="1" style="stop-color:#6898FF"/>
					</linearGradient>
					<path style="fill:url(#SVGID_00000047053472416091533650000010820750897642320277_);" d="M548.413,123.261
						c1.213,0,2.195-0.983,2.195-2.195c0-1.213-0.983-2.195-2.195-2.195s-2.195,0.983-2.195,2.195
						C546.218,122.278,547.201,123.261,548.413,123.261z"/>
				</g>
				<g>
					<rect x="453.21" y="225.208" style="fill:none;" width="100.384" height="6.652"/>
					<text transform="matrix(1 0 0 1 453.6517 227.1261)"><tspan x="0" y="0" style="fill:#14275B; font-family:'Montserrat-Light'; font-size:2.5844px;">Lorem ipsum dolor sit amet, consectetuer adipiscing elit, sed diam nonummy </tspan><tspan x="4.278" y="3.101" style="fill:#14275B; font-family:'Montserrat-Light'; font-size:2.5844px;">nibh euismod tincidunt ut laoreet dolore magna aliquam erat volutpat.</tspan></text>
					
						<text transform="matrix(1 0 0 1 478.9349 220.4903)" style="fill:#14275B; font-family:'Montserrat-Light'; font-size:8.2729px;">SUBSCRIBE</text>
				</g>
				<g>
					<g>
						<rect x="460.458" y="240.38" style="fill:#FFFFFF;" width="63.887" height="7.227"/>
					</g>
				</g>
				<rect x="522.472" y="240.38" style="fill:#14275B;" width="23.873" height="7.227"/>
				
					<text transform="matrix(1 0 0 1 528.7689 245.4513)" style="fill:#FFFFFF; font-family:'Montserrat-Regular'; font-size:4.3814px;">Send</text>
			</g>
		</g>
		<g>
			<g style="opacity:0.19;">
				<path style="fill:#14275B;" d="M616.563,411.761h87.251c2.585,0,4.681-2.096,4.681-4.681V241.031
					c0-2.585-2.096-4.681-4.681-4.681h-87.251c-2.585,0-4.681,2.096-4.681,4.681V407.08
					C611.882,409.665,613.978,411.761,616.563,411.761z"/>
			</g>
			<g>
				
					<linearGradient id="SVGID_00000007396144567648395460000006746331475411788436_" gradientUnits="userSpaceOnUse" x1="665.125" y1="249.3432" x2="673.3426" y2="501.351">
					<stop  offset="0.0056" style="stop-color:#14275B"/>
					<stop  offset="1" style="stop-color:#061139"/>
				</linearGradient>
				<path style="fill:url(#SVGID_00000007396144567648395460000006746331475411788436_);" d="M621.144,407.306h92.333
					c2.703,0,4.893-2.191,4.893-4.894V230.325c0-2.703-2.191-4.894-4.893-4.894h-92.333c-2.703,0-4.893,2.191-4.893,4.894v172.087
					C616.25,405.115,618.441,407.306,621.144,407.306z"/>
			</g>
			
				<linearGradient id="SVGID_00000090273728810451516700000010461621733557991834_" gradientUnits="userSpaceOnUse" x1="665.2034" y1="251.7464" x2="673.1263" y2="494.7183">
				<stop  offset="0" style="stop-color:#E8F5FF"/>
				<stop  offset="0.2254" style="stop-color:#E5F3FF"/>
				<stop  offset="0.3985" style="stop-color:#DBECFF"/>
				<stop  offset="0.5542" style="stop-color:#CBE0FF"/>
				<stop  offset="0.6996" style="stop-color:#B4CFFF"/>
				<stop  offset="0.8379" style="stop-color:#96B9FF"/>
				<stop  offset="0.9691" style="stop-color:#729FFF"/>
				<stop  offset="1" style="stop-color:#6898FF"/>
			</linearGradient>
			<path style="fill:url(#SVGID_00000090273728810451516700000010461621733557991834_);" d="M623.685,404.074h87.251
				c2.585,0,4.681-2.096,4.681-4.681V233.344c0-2.585-2.096-4.681-4.681-4.681h-87.251c-2.585,0-4.681,2.096-4.681,4.681v166.049
				C619.004,401.978,621.1,404.074,623.685,404.074z"/>
			<g>
				<path style="fill:#84D8FF;" d="M619.003,385.258v14.135c0,2.585,2.096,4.681,4.681,4.681h87.251
					c2.585,0,4.681-2.096,4.681-4.681v-14.135H619.003z"/>
				
					<text transform="matrix(1 0 0 1 648.2278 397.4757)" style="fill:#14275B; font-family:'Montserrat-Light'; font-size:7.3812px;">SUBSCRIBE</text>
				<g>
					<g>
						<text transform="matrix(1 0 0 1 623.9046 237.3526)"><tspan x="0" y="0" style="fill:#14275B; font-family:'Montserrat-Medium'; font-size:5.0175px;">Work</tspan><tspan x="13.983" y="0" style="fill:#14275B; font-family:'Montserrat-Bold'; font-size:5.0175px;">Logo</tspan></text>
					</g>
				</g>
				<g>
					
						<linearGradient id="SVGID_00000178921529411177296060000003078163042984198293_" gradientUnits="userSpaceOnUse" x1="720.9603" y1="231.9479" x2="684.5807" y2="283.4058">
						<stop  offset="0" style="stop-color:#6898FF"/>
						<stop  offset="1" style="stop-color:#A061FF"/>
					</linearGradient>
					<polygon style="fill:url(#SVGID_00000178921529411177296060000003078163042984198293_);" points="715.618,242.737 
						619.003,242.737 619.003,321.529 715.618,372.931 					"/>
					
						<linearGradient id="SVGID_00000124847972011429509990000005909731438647143357_" gradientUnits="userSpaceOnUse" x1="687.6029" y1="288.252" x2="672.6164" y2="315.7816">
						<stop  offset="0" style="stop-color:#6898FF"/>
						<stop  offset="1" style="stop-color:#A061FF"/>
					</linearGradient>
					<path style="fill:url(#SVGID_00000124847972011429509990000005909731438647143357_);" d="M715.618,303.053
						c-8.184-1.297-10.834,1.878-18.746,3.673c-3.334,0.757-6.744,1.462-10.081,0.321c-2.643-0.904-4.869-2.893-6.685-5.376
						c-2.204-3.014-3.784-6.545-5.548-9.939c-1.977-3.806-4.307-7.476-6.979-10.585c-5.19-6.037-11.726-8.558-18.77-8.986
						c-7.156-0.434-14.522,0.441-21.474,2.544c-2.804,0.848-5.643,1.949-8.332,3.419v43.403l96.615,51.402V303.053z"/>
					
						<linearGradient id="SVGID_00000029027894002446908140000004473688892580066693_" gradientUnits="userSpaceOnUse" x1="677.3616" y1="314.9752" x2="660.8729" y2="344.455">
						<stop  offset="0" style="stop-color:#6898FF"/>
						<stop  offset="1" style="stop-color:#A061FF"/>
					</linearGradient>
					<path style="fill:url(#SVGID_00000029027894002446908140000004473688892580066693_);" d="M715.618,356.652
						c-1.651-6.452-4.798-12.912-10.395-18.414c-17.058-16.772-36.739,16.13-47.615-26.914
						c-8.056-31.885-38.606-18.365-38.606-18.365v28.569l96.615,51.402V356.652z"/>
				</g>
				<g>
					<g>
						<text transform="matrix(1 0 0 1 628.0316 262.6476)"><tspan x="0" y="0" style="fill:#FFFFFF; font-family:'Montserrat-ExtraBold'; font-size:10.1619px;">RES</tspan><tspan x="0" y="9.208" style="fill:#FFFFFF; font-family:'Montserrat-ExtraBold'; font-size:10.1619px;">PON</tspan><tspan x="0" y="18.416" style="fill:#FFFFFF; font-family:'Montserrat-ExtraBold'; font-size:10.1619px;">SIVE</tspan><tspan x="0" y="28.396" style="fill:#FFFFFF; font-family:'Montserrat-Medium'; font-size:10.7367px;">WEBSITE </tspan><tspan x="0" y="38.377" style="fill:#FFFFFF; font-family:'Montserrat-Light'; font-size:11.2359px;">DESIGN</tspan></text>
					</g>
				</g>
				<g>
					<path style="fill:#14275B;" d="M698.687,379.942h-60.951c-1.587,0-2.874-1.287-2.874-2.874v-63.249
						c0-1.587,1.287-2.874,2.874-2.874h60.951c1.587,0,2.874,1.287,2.874,2.874v63.249
						C701.561,378.655,700.274,379.942,698.687,379.942z"/>
					<g>
						<rect x="643.845" y="351.91" style="fill:none;" width="54.248" height="19.628"/>
						<text transform="matrix(1 0 0 1 647.0198 353.6212)"><tspan x="0" y="0" style="fill:#FFFFFF; font-family:'Montserrat-Light'; font-size:2.3058px;">Lorem ipsum dolor sit amet, consectetuer </tspan><tspan x="0.877" y="2.767" style="fill:#FFFFFF; font-family:'Montserrat-Light'; font-size:2.3058px;">adipiscing elit, sed diam nonummy nibh </tspan><tspan x="-0.817" y="5.534" style="fill:#FFFFFF; font-family:'Montserrat-Light'; font-size:2.3058px;">euismod tincidunt ut laoreet dolore magna </tspan><tspan x="-1.909" y="8.301" style="fill:#FFFFFF; font-family:'Montserrat-Light'; font-size:2.3058px;">aliquam erat volutpat. Ut wisi enim ad minim </tspan><tspan x="-2.695" y="11.068" style="fill:#FFFFFF; font-family:'Montserrat-Light'; font-size:2.3058px;">veniam, quis nostrud exerci tation ullamcorper </tspan><tspan x="-2.477" y="13.835" style="fill:#FFFFFF; font-family:'Montserrat-Light'; font-size:2.3058px;">suscipit lobortis nisl ut aliquip ex ea commodo </tspan><tspan x="17.667" y="16.602" style="fill:#FFFFFF; font-family:'Montserrat-Light'; font-size:2.3058px;">consequat. </tspan></text>
					</g>
					<g>
						
							<linearGradient id="SVGID_00000080204843127971960740000014649409675794992282_" gradientUnits="userSpaceOnUse" x1="674.9069" y1="300.024" x2="668.8676" y2="351.5742">
							<stop  offset="0" style="stop-color:#E8F5FF"/>
							<stop  offset="0.2254" style="stop-color:#E5F3FF"/>
							<stop  offset="0.3985" style="stop-color:#DBECFF"/>
							<stop  offset="0.5542" style="stop-color:#CBE0FF"/>
							<stop  offset="0.6996" style="stop-color:#B4CFFF"/>
							<stop  offset="0.8379" style="stop-color:#96B9FF"/>
							<stop  offset="0.9691" style="stop-color:#729FFF"/>
							<stop  offset="1" style="stop-color:#6898FF"/>
						</linearGradient>
						<path style="fill:url(#SVGID_00000080204843127971960740000014649409675794992282_);" d="M685.85,319.364h-29.763
							c-0.365,0-0.661,0.296-0.661,0.661v27.232c0,0.365,0.296,0.661,0.661,0.661h29.763c0.365,0,0.661-0.296,0.661-0.661v-27.232
							C686.511,319.66,686.215,319.364,685.85,319.364z M685.189,320.686v17.605c-0.042-0.057-0.085-0.114-0.135-0.165l-3.444-3.444
							c-0.546-0.546-1.431-0.546-1.977,0l-2.977,2.977c-0.546,0.546-1.431,0.546-1.977,0l-7.592-7.592
							c-0.525-0.525-1.368-0.548-1.921-0.053l-8.419,7.541v-16.871H685.189z"/>
						
							<linearGradient id="SVGID_00000049902877987209244650000018360393013648979639_" gradientUnits="userSpaceOnUse" x1="679.9581" y1="300.6157" x2="673.9187" y2="352.166">
							<stop  offset="0" style="stop-color:#E8F5FF"/>
							<stop  offset="0.2254" style="stop-color:#E5F3FF"/>
							<stop  offset="0.3985" style="stop-color:#DBECFF"/>
							<stop  offset="0.5542" style="stop-color:#CBE0FF"/>
							<stop  offset="0.6996" style="stop-color:#B4CFFF"/>
							<stop  offset="0.8379" style="stop-color:#96B9FF"/>
							<stop  offset="0.9691" style="stop-color:#729FFF"/>
							<stop  offset="1" style="stop-color:#6898FF"/>
						</linearGradient>
						<path style="fill:url(#SVGID_00000049902877987209244650000018360393013648979639_);" d="M676.936,328.372
							c1.082,0,1.959-0.877,1.959-1.959c0-1.082-0.877-1.959-1.959-1.959s-1.959,0.877-1.959,1.959
							C674.977,327.495,675.854,328.372,676.936,328.372z"/>
					</g>
				</g>
				<g>
					
						<line style="fill:none;stroke:#14275B;stroke-width:1.0998;stroke-miterlimit:10;" x1="700.659" y1="232.51" x2="710.249" y2="232.51"/>
					
						<line style="fill:none;stroke:#14275B;stroke-width:1.0998;stroke-miterlimit:10;" x1="700.659" y1="235.781" x2="710.249" y2="235.781"/>
					
						<line style="fill:none;stroke:#14275B;stroke-width:1.0998;stroke-miterlimit:10;" x1="700.659" y1="239.051" x2="710.249" y2="239.051"/>
				</g>
			</g>
		</g>
	</g>
	<g>
		<g>
			<circle style="fill:#E8F5FF;" cx="349.929" cy="196.402" r="21.211"/>
			<g>
				
					<line style="fill:none;stroke:#A061FF;stroke-width:3;stroke-linecap:round;stroke-linejoin:round;stroke-miterlimit:10;" x1="352.001" y1="189.45" x2="347.858" y2="203.354"/>
				
					<polyline style="fill:none;stroke:#A061FF;stroke-width:3;stroke-linecap:round;stroke-linejoin:round;stroke-miterlimit:10;" points="
					344.083,202.823 334.871,196.373 344.108,189.958 				"/>
				
					<polyline style="fill:none;stroke:#A061FF;stroke-width:3;stroke-linecap:round;stroke-linejoin:round;stroke-miterlimit:10;" points="
					355.776,189.98 364.988,196.431 355.751,202.846 				"/>
			</g>
		</g>
	</g>
</g>
</svg>
